<?xml version="1.0" encoding="utf-8"?>
<!-- Generator: Adobe Illustrator 21.1.0, SVG Export Plug-In . SVG Version: 6.00 Build 0)  -->
<svg version="1.1" xmlns="http://www.w3.org/2000/svg" xmlns:xlink="http://www.w3.org/1999/xlink" x="0px" y="0px"
	 viewBox="0 0 400 400" style="enable-background:new 0 0 400 400;" xml:space="preserve">
<style type="text/css">
	.st0{display:none;}
	.st1{display:inline;opacity:0.1;fill:#00FFFF;}
	.st2{filter:url(#Adobe_OpacityMaskFilter);}
	.st3{fill:#FFFFFF;}
	.st4{filter:url(#Adobe_OpacityMaskFilter_1_);}
	.st5{fill:#F4F4F4;}
	.st6{opacity:0.5;fill:url(#);}
	.st7{fill:#333333;}
	.st8{fill:#FF5200;}
	.st9{fill:#FF3400;}
	.st10{fill:#FF7500;}
	.st11{fill:url(#SVGID_3_);}
	.st12{fill:url(#SVGID_4_);}
	.st13{fill:#4A00AA;}
	.st14{fill:#17A50F;}
	.st15{fill:#00FFFF;}
	.st16{opacity:0.75;fill:none;stroke:#00FFFF;stroke-miterlimit:10;}
	.st17{fill:#1C2227;}
	.st18{opacity:0.75;fill:none;stroke:#FF0000;stroke-miterlimit:10;}
	.st19{fill:#2A333A;}
	.st20{fill:#FFB100;}
	.st21{fill:#E0E0E0;}
	.st22{filter:url(#Adobe_OpacityMaskFilter_2_);}
	.st23{filter:url(#Adobe_OpacityMaskFilter_3_);}
	.st24{fill:url(#SVGID_7_);}
	.st25{filter:url(#Adobe_OpacityMaskFilter_4_);}
	.st26{fill:url(#SVGID_9_);}
	.st27{fill:url(#SVGID_10_);}
	.st28{filter:url(#Adobe_OpacityMaskFilter_5_);}
	.st29{filter:url(#Adobe_OpacityMaskFilter_6_);}
	.st30{fill:url(#SVGID_13_);}
	.st31{filter:url(#Adobe_OpacityMaskFilter_7_);}
	.st32{fill:url(#SVGID_15_);}
	.st33{fill:url(#SVGID_16_);}
	.st34{fill:#FF4F00;}
	.st35{fill:url(#SVGID_17_);}
	.st36{fill:url(#SVGID_18_);}
	.st37{display:inline;}
	.st38{fill:none;stroke:#00A551;stroke-width:0.1;}
</style>
<g id="columns" class="st0">
</g>
<g id="hero-image">
</g>
<g id="Layer_1">
	<g>
		<path class="st17" d="M105.2,117.2c-1-1.1-2.6-1.7-4.9-1.7H70.9c-2.3,0-3.9,0.6-4.9,1.7c-1,1.1-1.5,2.9-1.5,5.4l1.8,181
			c0,4.3,0.1,8.3,0.4,11.9c0.3,3.7,1.2,8,2.8,13l8.9,27.7c0.6,2.1,1.6,3.9,2.9,5.2c1.4,1.3,3,2,4.9,2h23.6c1.9,0,3.5-0.5,4.8-1.5
			c1.3-1,2.2-2.5,2.7-4.5l8.4-32.7c0.4-1.3,0.8-2.2,1.3-2.7c0.5-0.5,1.2-0.7,1.9-0.7h1.6c0.7,0,1.3,0.2,1.9,0.7
			c0.5,0.5,1,1.4,1.3,2.7l8.2,32.7c0.5,2.1,1.5,3.7,3,4.6s3.3,1.4,5.2,1.4H174c1.9,0,3.4-0.7,4.6-2.1c1.1-1.4,2-3.1,2.6-5.1
			l8.9-27.3c1.5-5,2.5-9.3,2.8-13c0.3-3.7,0.4-7.7,0.4-11.9l1.6-260.1c0-2.5-0.5-4.4-1.5-5.5c-1-1.1-2.7-1.7-4.9-1.7h-28
			c-2.3,0-3.9,0.6-4.9,1.7c-1,1.1-1.5,3-1.5,5.5l-0.1,256.1l-10.4-25.3c-1-2.3-2.2-3.9-3.8-4.8c-1.5-0.9-3.5-1.4-5.7-1.4h-7.5
			c-2.3,0-4.2,0.5-5.7,1.4c-1.6,0.9-2.8,2.5-3.8,4.8l-10.4,25.3l0-177.4C106.8,120.1,106.2,118.3,105.2,117.2z"/>
		<path class="st17" d="M317.4,49.5c-4-3.6-9.5-6.3-16.5-8.3c-7-2-15.9-3-26.7-3c-10.8,0-19.7,1-26.7,3c-7,2-12.5,4.8-16.5,8.3
			c-4,3.6-6.8,7.8-8.4,12.8c-1.6,5-2.4,10.5-2.4,16.6v243.9c0,6.1,0.8,11.6,2.4,16.6c1.6,5,4.4,9.2,8.4,12.7c4,3.5,9.5,6.2,16.5,8.2
			c7,2,15.9,3,26.7,3c10.8,0,19.7-1,26.7-3c7-2,12.5-4.7,16.5-8.2c4-3.5,6.8-7.7,8.3-12.7c1.5-5,2.3-10.5,2.3-16.6V78.9
			c0-6.1-0.8-11.6-2.3-16.6C324.2,57.3,321.4,53.1,317.4,49.5z M288.3,315.6c0,2.6-0.9,4.9-2.6,6.6c-1.7,1.8-5.6,2.7-11.6,2.7
			s-9.9-0.9-11.6-2.7c-1.7-1.8-2.6-4-2.6-6.6V86c0-2.5,0.9-4.7,2.6-6.4c1.7-1.8,5.6-2.7,11.6-2.7s9.8,0.9,11.6,2.7
			c1.7,1.8,2.6,3.9,2.6,6.4V315.6z"/>
		<path class="st8" d="M274.2,76.9c-6,0-9.9,0.9-11.6,2.7c-1.7,1.8-2.6,3.9-2.6,6.4v229.6c0,2.6,0.9,4.9,2.6,6.6
			c1.7,1.8,5.6,2.7,11.6,2.7s9.8-0.9,11.6-2.7c1.7-1.8,2.6-4,2.6-6.6V86c0-2.5-0.9-4.7-2.6-6.4C284.1,77.8,280.2,76.9,274.2,76.9z"
			/>
		<path class="st8" d="M390.2,0H9.8C4.4,0,0,4.4,0,9.8V200v190.2c0,5.4,4.4,9.8,9.8,9.8h380.4c5.4,0,9.8-4.4,9.8-9.8V200V9.8
			C400,4.4,395.6,0,390.2,0z M117.1,274.6c1-2.3,2.2-3.9,3.8-4.8c1.5-0.9,3.4-1.4,5.7-1.4h7.5c2.3,0,4.2,0.5,5.7,1.4
			c1.5,0.9,2.8,2.5,3.8,4.8l10.4,25.3L154,43.8c0-2.5,0.5-4.4,1.5-5.5c1-1.1,2.7-1.7,4.9-1.7h28c2.3,0,3.9,0.6,4.9,1.7
			c1,1.1,1.5,3,1.5,5.5L193.3,304c0,4.3-0.1,8.3-0.4,11.9c-0.3,3.7-1.2,8-2.8,13l-8.9,27.3c-0.6,2-1.5,3.7-2.6,5.1
			c-1.1,1.4-2.7,2.1-4.6,2.1h-23.7c-1.9,0-3.6-0.5-5.2-1.4s-2.6-2.5-3-4.6l-8.2-32.7c-0.4-1.3-0.8-2.2-1.3-2.7
			c-0.5-0.5-1.2-0.7-1.9-0.7H129c-0.7,0-1.3,0.2-1.9,0.7c-0.5,0.5-1,1.4-1.3,2.7l-8.4,32.7c-0.5,2-1.4,3.5-2.7,4.5
			c-1.3,1-2.9,1.5-4.8,1.5H86.4c-1.9,0-3.5-0.7-4.9-2c-1.4-1.3-2.4-3.1-2.9-5.2l-8.9-27.7c-1.5-5-2.5-9.3-2.8-13
			c-0.3-3.7-0.4-7.7-0.4-11.9l-1.8-181c0-2.5,0.5-4.3,1.5-5.4c1-1.1,2.6-1.7,4.9-1.7h29.4c2.2,0,3.9,0.6,4.9,1.7
			c1,1.1,1.5,2.9,1.5,5.4l0,177.4L117.1,274.6z M328,322.7c0,6.1-0.8,11.6-2.3,16.6c-1.5,5-4.3,9.2-8.3,12.7
			c-4,3.5-9.5,6.2-16.5,8.2c-7,2-15.9,3-26.7,3c-10.8,0-19.7-1-26.7-3c-7-2-12.5-4.7-16.5-8.2c-4-3.5-6.8-7.7-8.4-12.7
			c-1.6-5-2.4-10.5-2.4-16.6V78.9c0-6.1,0.8-11.6,2.4-16.6c1.6-5,4.4-9.2,8.4-12.8c4-3.6,9.5-6.3,16.5-8.3c7-2,15.9-3,26.7-3
			c10.8,0,19.7,1,26.7,3c7,2,12.5,4.8,16.5,8.3c4,3.6,6.8,7.8,8.3,12.8c1.5,5,2.3,10.5,2.3,16.6V322.7z"/>
	</g>
</g>
<g id="guides" class="st0">
</g>
</svg>
