<?xml version="1.0" encoding="utf-8"?>
<!-- Generator: Adobe Illustrator 21.1.0, SVG Export Plug-In . SVG Version: 6.00 Build 0)  -->
<svg version="1.1" xmlns="http://www.w3.org/2000/svg" xmlns:xlink="http://www.w3.org/1999/xlink" x="0px" y="0px"
	 viewBox="0 0 400 400" style="enable-background:new 0 0 400 400;" xml:space="preserve">
<style type="text/css">
	.st0{display:none;}
	.st1{display:inline;opacity:0.1;fill:#00FFFF;}
	.st2{filter:url(#Adobe_OpacityMaskFilter);}
	.st3{fill:#FFFFFF;}
	.st4{filter:url(#Adobe_OpacityMaskFilter_1_);}
	.st5{fill:none;stroke:#F2F2F2;stroke-width:10;stroke-linecap:round;stroke-miterlimit:10;}
	.st6{fill:#E5E5E5;}
	.st7{fill:#4E0074;}
	.st8{fill:url(#);}
	.st9{fill:url(#SVGID_3_);}
	.st10{fill:#333333;}
	.st11{fill:#00D9E4;}
	.st12{fill:#FF5200;}
	.st13{fill:#210035;}
	.st14{fill:#E0E0E0;}
	.st15{filter:url(#Adobe_OpacityMaskFilter_2_);}
	.st16{opacity:0.5;fill:url(#);}
	.st17{filter:url(#Adobe_OpacityMaskFilter_3_);}
	.st18{fill:url(#SVGID_6_);}
	.st19{filter:url(#Adobe_OpacityMaskFilter_4_);}
	.st20{fill:url(#SVGID_8_);}
	.st21{fill:url(#SVGID_9_);}
	.st22{filter:url(#Adobe_OpacityMaskFilter_5_);}
	.st23{filter:url(#Adobe_OpacityMaskFilter_6_);}
	.st24{fill:url(#SVGID_12_);}
	.st25{filter:url(#Adobe_OpacityMaskFilter_7_);}
	.st26{fill:url(#SVGID_14_);}
	.st27{fill:url(#SVGID_15_);}
	.st28{opacity:0.75;fill:#FFFFFF;}
	.st29{opacity:0.9;fill:#00D9E4;}
	.st30{fill:#FF3C00;}
	.st31{fill:#00A838;}
	.st32{filter:url(#Adobe_OpacityMaskFilter_8_);}
	.st33{fill:#848484;}
	.st34{display:inline;}
	.st35{fill:none;stroke:#00A551;stroke-width:0.1;}
</style>
<g id="columns" class="st0">
</g>
<g id="hero-image">
</g>
<g id="Layer_1">
	<g>
		<path class="st11" d="M274.3,77c-6,0-9.9,0.9-11.6,2.7c-1.7,1.8-2.6,3.9-2.6,6.5V316c0,2.6,0.9,4.9,2.6,6.7
			c1.7,1.8,5.6,2.7,11.6,2.7c6,0,9.9-0.9,11.6-2.7c1.7-1.8,2.6-4,2.6-6.7V86.1c0-2.5-0.9-4.7-2.6-6.5C284.2,77.9,280.3,77,274.3,77z
			"/>
		<path class="st11" d="M-0.2,0v200.2v200.2h400.5V200.2V0H-0.2z M193.3,304.3c0,4.3-0.1,8.3-0.4,12c-0.3,3.7-1.2,8-2.8,13
			l-8.9,27.3c-0.6,2-1.5,3.7-2.6,5.1c-1.1,1.4-2.7,2.1-4.6,2.1h-23.8c-1.9,0-3.6-0.5-5.2-1.4c-1.5-0.9-2.6-2.5-3-4.6l-8.2-32.8
			c-0.4-1.3-0.8-2.2-1.3-2.7c-0.5-0.5-1.2-0.7-1.9-0.7h-1.6c-0.7,0-1.3,0.2-1.9,0.7c-0.5,0.5-1,1.4-1.3,2.7l-8.4,32.8
			c-0.5,2-1.4,3.5-2.7,4.5c-1.3,1-2.9,1.5-4.8,1.5H86.2c-1.9,0-3.5-0.7-4.9-2c-1.4-1.3-2.4-3.1-3-5.2l-8.9-27.7
			c-1.5-5-2.5-9.3-2.8-13c-0.3-3.7-0.4-7.7-0.4-12l-1.8-181.2c0-2.5,0.5-4.3,1.5-5.4c1-1.1,2.6-1.7,4.9-1.7h29.5
			c2.3,0,3.9,0.6,4.9,1.7c1,1.1,1.5,2.9,1.5,5.4l0,177.6L117,275c1-2.3,2.2-3.9,3.8-4.8c1.5-0.9,3.5-1.4,5.7-1.4h7.5
			c2.3,0,4.2,0.5,5.7,1.4c1.5,0.9,2.8,2.5,3.8,4.8l10.4,25.3l0.1-256.4c0-2.5,0.5-4.4,1.5-5.5c1-1.1,2.7-1.7,4.9-1.7h28.1
			c2.3,0,3.9,0.6,4.9,1.7c1,1.1,1.5,3,1.5,5.5L193.3,304.3z M328.2,323.1c0,6.1-0.8,11.6-2.3,16.6c-1.5,5-4.3,9.2-8.3,12.7
			c-4,3.5-9.5,6.3-16.5,8.2c-7,2-15.9,3-26.8,3c-10.8,0-19.8-1-26.8-3c-7-2-12.5-4.7-16.5-8.2c-4-3.5-6.8-7.7-8.4-12.7
			c-1.6-5-2.4-10.5-2.4-16.6V78.9c0-6.1,0.8-11.6,2.4-16.6c1.6-5,4.4-9.2,8.4-12.8c4-3.6,9.5-6.4,16.5-8.3c7-2,15.9-3,26.8-3
			c10.8,0,19.7,1,26.8,3c7,2,12.5,4.8,16.5,8.3c4,3.6,6.8,7.8,8.3,12.8c1.5,5,2.3,10.5,2.3,16.6V323.1z"/>
	</g>
</g>
<g id="guides" class="st0">
</g>
</svg>
