<?xml version="1.0" encoding="utf-8"?>
<!-- Generator: Adobe Illustrator 22.1.0, SVG Export Plug-In . SVG Version: 6.00 Build 0)  -->
<svg version="1.1" xmlns="http://www.w3.org/2000/svg" xmlns:xlink="http://www.w3.org/1999/xlink" x="0px" y="0px"
	 viewBox="0 0 155 122" style="enable-background:new 0 0 155 122;" xml:space="preserve">
<style type="text/css">
	.st0{display:none;}
	.st1{display:inline;opacity:0.1;fill:#00FFFF;}
	.st2{filter:url(#Adobe_OpacityMaskFilter);}
	.st3{fill:#FFFFFF;}
	.st4{fill:#E5E5E5;}
	.st5{fill:#4E0074;}
	.st6{fill:url(#);}
	.st7{fill:url(#SVGID_2_);}
	.st8{fill:#333333;}
	.st9{fill:#00D9E4;}
	.st10{fill:#FF5200;}
	.st11{fill:#210035;}
	.st12{fill:#E0E0E0;}
	.st13{filter:url(#Adobe_OpacityMaskFilter_1_);}
	.st14{opacity:0.5;fill:url(#);}
	.st15{filter:url(#Adobe_OpacityMaskFilter_2_);}
	.st16{fill:url(#SVGID_5_);}
	.st17{filter:url(#Adobe_OpacityMaskFilter_3_);}
	.st18{fill:url(#SVGID_7_);}
	.st19{fill:url(#SVGID_8_);}
	.st20{filter:url(#Adobe_OpacityMaskFilter_4_);}
	.st21{filter:url(#Adobe_OpacityMaskFilter_5_);}
	.st22{fill:url(#SVGID_11_);}
	.st23{filter:url(#Adobe_OpacityMaskFilter_6_);}
	.st24{fill:url(#SVGID_13_);}
	.st25{fill:url(#SVGID_14_);}
	.st26{fill:#FF3C00;}
	.st27{fill:#00A838;}
	.st28{filter:url(#Adobe_OpacityMaskFilter_7_);}
	.st29{fill:#F70055;}
	.st30{fill:#F2F2F2;}
	.st31{opacity:2.000000e-02;}
	.st32{fill:none;stroke:#000000;stroke-width:7;stroke-miterlimit:10;}
	.st33{filter:url(#Adobe_OpacityMaskFilter_8_);}
	.st34{display:inline;}
	.st35{fill:none;stroke:#00A551;stroke-width:0.1;}
</style>
<g id="columns" class="st0">
</g>
<g id="hero-image">
</g>
<g id="Layer_1">
	<g class="st31">
		<g>
			<polyline class="st32" points="-615.7,5.4 -538.6,37.4 -461.6,5.4 -384.6,37.4 -307.5,5.4 -230.5,37.4 -153.5,5.4 -76.4,37.4 
				0.6,5.4 77.6,37.4 154.7,5.4 231.7,37.4 308.7,5.4 385.8,37.4 462.8,5.4 539.8,37.4 616.9,5.4 693.9,37.4 770.9,5.4 848,37.4 
				925,5.4 			"/>
		</g>
		<g>
			<polyline class="st32" points="-616,31.5 -539,63.5 -462,31.5 -385,63.5 -307.9,31.5 -230.9,63.5 -153.9,31.5 -76.8,63.5 
				0.2,31.5 77.2,63.5 154.3,31.5 231.3,63.5 308.3,31.5 385.4,63.5 462.4,31.5 539.4,63.5 616.5,31.5 693.5,63.5 770.6,31.5 
				847.6,63.5 924.6,31.5 			"/>
		</g>
		<g>
			<polyline class="st32" points="-616.4,57.6 -539.4,89.6 -462.4,57.6 -385.3,89.6 -308.3,57.6 -231.3,89.6 -154.2,57.6 
				-77.2,89.6 -0.2,57.6 76.9,89.6 153.9,57.6 230.9,89.6 308,57.6 385,89.6 462,57.6 539.1,89.6 616.1,57.6 693.1,89.6 770.2,57.6 
				847.2,89.6 924.3,57.6 			"/>
		</g>
		<g>
			<polyline class="st32" points="-616.8,83.7 -539.8,115.7 -462.8,83.7 -385.7,115.7 -308.7,83.7 -231.7,115.7 -154.6,83.7 
				-77.6,115.7 -0.6,83.7 76.5,115.7 153.5,83.7 230.5,115.7 307.6,83.7 384.6,115.7 461.6,83.7 538.7,115.7 615.7,83.7 
				692.7,115.7 769.8,83.7 846.8,115.7 923.9,83.7 			"/>
		</g>
	</g>
</g>
<g id="guides" class="st0">
</g>
</svg>
